<?xml version="1.0" standalone="no"?><!DOCTYPE svg PUBLIC "-//W3C//DTD SVG 1.1//EN" "http://www.w3.org/Graphics/SVG/1.1/DTD/svg11.dtd"><svg t="1643250747378" class="icon" viewBox="0 0 1024 1024" version="1.1" xmlns="http://www.w3.org/2000/svg" p-id="4149" xmlns:xlink="http://www.w3.org/1999/xlink" width="32" height="32"><defs><style type="text/css"></style></defs><path d="M551.18988 510.843505a73.483519 73.483519 0 0 0-19.854879-50.558299L115.610693 21.021608a65.193595 65.193595 0 0 0-95.794671 0 74.404622 74.404622 0 0 0 0 101.116597l367.929318 388.7053L19.918366 899.139425a74.404622 74.404622 0 0 0 0 101.116597 65.193595 65.193595 0 0 0 95.794671 0L531.335001 561.401803a73.278829 73.278829 0 0 0 19.854879-50.455954z m0 0H1023.510826a73.483519 73.483519 0 0 0-19.854878-50.558299L587.931639 21.021608a65.193595 65.193595 0 0 0-95.692326 0 74.404622 74.404622 0 0 0 0 101.116597L859.759252 510.843505 492.239313 899.139425a74.404622 74.404622 0 0 0 0 101.116597 65.193595 65.193595 0 0 0 95.794671 0L1003.655948 561.401803A73.381174 73.381174 0 0 0 1023.510826 510.843505z m0 0" p-id="4150"></path></svg>