<?xml version="1.0" standalone="no"?><!DOCTYPE svg PUBLIC "-//W3C//DTD SVG 1.1//EN" "http://www.w3.org/Graphics/SVG/1.1/DTD/svg11.dtd"><svg t="1643250739422" class="icon" viewBox="0 0 1024 1024" version="1.1" xmlns="http://www.w3.org/2000/svg" p-id="4003" xmlns:xlink="http://www.w3.org/1999/xlink" width="32" height="32"><defs><style type="text/css"></style></defs><path d="M472.81012 513.156495a73.483519 73.483519 0 0 0 19.85487899 50.558299L908.389307 1002.978392a65.193595 65.193595 0 0 0 95.794671-1e-8 74.404622 74.404622 0 0 0 1e-8-101.11659699l-367.92931801-388.7053L1004.081634 124.860575a74.404622 74.404622 0 0 0 0-101.116597 65.193595 65.193595 0 0 0-95.794671 0L492.66499899 462.598197a73.278829 73.278829 0 0 0-19.85487899 50.455954z m0 0L0.489174 513.156495a73.483519 73.483519 0 0 0 19.854878 50.558299L436.068361 1002.978392a65.193595 65.193595 0 0 0 95.692326 0 74.404622 74.404622 0 0 0 0-101.116597L164.240748 513.156495 531.760687 124.860575a74.404622 74.404622 0 0 0 0-101.116597 65.193595 65.193595 0 0 0-95.794671 0L20.344052 462.598197A73.381174 73.381174 0 0 0 0.489174 513.156495z m0 0" p-id="4004"></path></svg>